# 3ds Max Wavefront OBJ Exporter v0.97b - (c)2007 guruware
# File Created: 17.02.2018 09:48:40

mtllib Power_Lines_02.mtl

#
# object Power_Lines_02
#

v  -1.9363 39.1744 -319.1238
v  -0.0315 36.1513 -320.4496
v  -3.8411 36.1083 -320.3469
v  -5.5639 -20.0882 -65.5495
v  -5.7854 -14.7875 -65.2999
v  -1.3012 -11.9420 -65.2419
v  3.6261 -19.6979 -65.6831
v  3.4045 -14.3972 -65.4335
v  -0.8582 -22.5433 -65.7410
v  4.3579 -17.0760 -7.6899
v  -0.3478 -14.6209 -7.4983
v  -4.8320 -17.4664 -7.5563
v  0.0952 -25.2222 -7.9975
v  -4.6105 -22.7670 -7.8059
v  4.5794 -22.3767 -7.9395
v  9.0703 -16.5705 197.9442
v  12.8814 -16.5502 197.9708
v  12.5178 -1.7147 243.6011
v  8.7067 -1.7332 243.5804
v  12.2648 15.9442 284.7643
v  8.4536 15.9299 284.7534
v  12.1699 36.2266 320.6266
v  8.3587 36.2208 320.6303
v  10.8874 -41.1491 -68.0330
v  14.6986 -41.1285 -68.0226
v  14.4932 -43.5229 -12.5582
v  10.6820 -43.5432 -12.5773
v  14.1614 -42.0523 42.6076
v  10.3503 -42.0727 42.5825
v  13.7506 -36.9271 96.6404
v  9.9395 -36.9478 96.6120
v  13.3081 -28.3568 148.7061
v  9.4970 -28.3777 148.6771
v  8.3574 36.1947 -320.5307
v  12.1673 36.2499 -320.6156
v  13.3069 11.3376 -276.1800
v  9.4963 11.2977 -276.1214
v  14.0820 -8.6392 -227.8653
v  10.2710 -8.6697 -227.8296
v  14.5405 -23.8995 -176.5107
v  10.7294 -23.9244 -176.4939
v  14.7302 -34.6581 -122.9516
v  10.9190 -34.6801 -122.9501
v  10.9652 -13.3801 197.0648
v  10.6037 1.3707 242.4332
v  10.3525 18.9034 283.3003
v  10.2583 38.9866 318.8227
v  12.7743 -37.8464 -67.7662
v  12.5698 -40.2305 -12.5424
v  12.2394 -38.7661 42.3942
v  11.8303 -33.6622 96.2022
v  11.3898 -25.1294 148.0399
v  10.2623 38.9894 -318.7740
v  11.3918 14.2964 -274.7155
v  12.1613 -5.5369 -226.7503
v  12.6171 -20.7042 -175.7108
v  12.8058 -31.4062 -122.4360
v  0.6823 2.5050 197.8694
v  -1.2324 5.7466 197.2704
v  -1.5943 15.1912 242.6934
v  0.3190 11.9868 243.4727
v  -1.8458 26.3868 283.6145
v  0.0661 23.2407 284.6088
v  -1.9401 39.1769 319.1829
v  -0.0287 36.1316 320.4471
v  2.4986 -13.4192 -67.9909
v  0.5786 -10.1298 -67.8305
v  0.3739 -11.6095 -12.5505
v  2.2933 -14.9031 -12.5542
v  0.0431 -10.6201 42.4403
v  1.9616 -13.9109 42.5849
v  -0.3664 -7.3027 96.3014
v  1.5510 -10.5845 96.5915
v  -0.8073 -1.7995 148.1919
v  1.1088 -5.0656 148.6311
v  -0.8056 23.2739 -275.0208
v  1.1077 20.1332 -276.0323
v  -0.0351 10.5248 -226.9969
v  1.8823 7.3147 -227.7447
v  0.4212 0.7986 -175.8954
v  2.3406 -2.4536 -176.4200
v  0.6101 -6.0403 -122.5592
v  2.5302 -9.3170 -122.8909
v  -3.1288 2.4890 197.8400
v  -3.4922 11.9718 243.4486
v  -3.7451 23.2284 284.5947
v  -3.8400 36.1255 320.4496
v  -1.3126 -13.4352 -68.0004
v  -1.5179 -14.9188 -12.5732
v  -1.8495 -13.9268 42.5591
v  -2.2601 -10.6007 96.5617
v  -2.7023 -5.0819 148.6000
v  -2.7029 20.1030 -275.9638
v  -1.9286 7.2916 -227.7035
v  -1.4705 -2.4727 -176.4001
v  -1.2810 -9.3340 -122.8876
# 96 vertices

vn -0.0292 0.3860 -0.9221
vn -0.0165 0.0463 -0.9988
vn 0.0165 -0.0463 0.9988
vn 0.0032 -0.9625 0.2714
vn 0.0026 -0.9360 0.3521
vn 0.0021 -0.8961 0.4439
vn 0.0018 -0.8704 0.4923
vn 0.0056 -0.9968 -0.0801
vn 0.0055 -0.9991 -0.0431
vn 0.0054 -1.0000 -0.0082
vn 0.0049 -0.9981 0.0606
vn 0.0044 -0.9917 0.1285
vn 0.0039 -0.9802 0.1979
vn 0.0017 -0.8722 -0.4891
vn 0.0027 -0.8998 -0.4364
vn 0.0044 -0.9426 -0.3340
vn 0.0050 -0.9585 -0.2849
vn 0.0050 -0.9596 -0.2812
vn 0.0055 -0.9804 -0.1970
vn 0.0056 -0.9876 -0.1571
vn 0.0057 -0.9931 -0.1170
vn -0.8678 0.4764 -0.1415
vn -0.8675 0.4635 -0.1805
vn -0.8674 0.4444 -0.2240
vn -0.8673 0.4444 -0.2241
vn -0.8666 0.4334 -0.2474
vn -0.8665 0.4335 -0.2474
vn -0.8690 0.4934 0.0378
vn -0.8688 0.4951 -0.0001
vn -0.8686 0.4942 -0.0359
vn -0.8683 0.4909 -0.0706
vn -0.8681 0.4852 -0.1054
vn -0.8681 0.4851 -0.1054
vn -0.8661 0.4262 0.2611
vn -0.8677 0.4401 0.2313
vn -0.8677 0.4400 0.2313
vn -0.8685 0.4637 0.1750
vn -0.8685 0.4637 0.1751
vn -0.8689 0.4791 0.1244
vn -0.8689 0.4791 0.1245
vn -0.8690 0.4884 0.0790
vn 0.8646 0.4855 -0.1297
vn 0.8646 0.4799 -0.1491
vn 0.8646 0.4790 -0.1515
vn 0.8648 0.4633 -0.1934
vn 0.8653 0.4506 -0.2194
vn 0.8653 0.4507 -0.2194
vn 0.8646 0.4383 -0.2456
vn 0.8633 0.5029 0.0423
vn 0.8634 0.5044 0.0084
vn 0.8634 0.5044 0.0083
vn 0.8636 0.5035 -0.0247
vn 0.8639 0.5003 -0.0579
vn 0.8642 0.4946 -0.0924
vn 0.8646 0.4475 0.2286
vn 0.8648 0.4586 0.2045
vn 0.8648 0.4586 0.2044
vn 0.8640 0.4779 0.1586
vn 0.8640 0.4779 0.1585
vn 0.8635 0.4906 0.1166
vn 0.8635 0.4906 0.1165
vn 0.8633 0.4985 0.0780
vn 0.8647 0.4955 -0.0823
vn 0.8647 0.4955 -0.0824
vn 0.8649 0.4893 -0.1116
vn 0.8652 0.4791 -0.1476
vn 0.8652 0.4792 -0.1476
vn 0.8649 0.4731 -0.1679
vn 0.8648 0.4731 -0.1679
vn 0.8639 0.5029 0.0274
vn 0.8640 0.5035 0.0064
vn 0.8641 0.5031 -0.0141
vn 0.8642 0.5018 -0.0351
vn 0.8645 0.4994 -0.0574
vn 0.8649 0.4789 0.1505
vn 0.8649 0.4840 0.1333
vn 0.8649 0.4840 0.1332
vn 0.8643 0.4926 0.1014
vn 0.8643 0.4926 0.1013
vn 0.8640 0.4980 0.0739
vn 0.8639 0.5012 0.0496
vn 0.8639 0.5012 0.0495
vn -0.8674 0.4883 -0.0955
vn -0.8673 0.4860 -0.1080
vn -0.8673 0.4826 -0.1222
vn -0.8671 0.4738 -0.1536
vn -0.8667 0.4687 -0.1708
vn -0.8683 0.4956 0.0233
vn -0.8681 0.4963 -0.0020
vn -0.8680 0.4959 -0.0256
vn -0.8678 0.4945 -0.0484
vn -0.8677 0.4935 -0.0597
vn -0.8677 0.4934 -0.0608
vn -0.8675 0.4905 -0.0829
vn -0.8662 0.4626 0.1890
vn -0.8661 0.4627 0.1891
vn -0.8672 0.4699 0.1648
vn -0.8679 0.4819 0.1205
vn -0.8682 0.4892 0.0832
vn -0.8682 0.4892 0.0833
vn -0.8683 0.4934 0.0513
vn 0.0041 -0.9876 -0.1572
vn 0.0035 -0.9750 -0.2220
vn 0.0035 -0.9751 -0.2219
vn 0.0022 -0.9545 -0.2982
vn 0.0015 -0.9407 -0.3393
vn 0.0036 -0.9965 0.0835
vn 0.0039 -0.9992 0.0398
vn 0.0041 -1.0000 -0.0044
vn 0.0043 -0.9987 -0.0506
vn 0.0044 -0.9949 -0.1009
vn 0.0017 -0.9410 0.3385
vn 0.0020 -0.9535 0.3014
vn 0.0023 -0.9723 0.2338
vn 0.0023 -0.9723 0.2339
vn 0.0028 -0.9841 0.1778
vn 0.0028 -0.9841 0.1779
vn 0.0032 -0.9917 0.1288
vn -0.8443 -0.5358 -0.0109
vn -0.8860 0.4623 0.0361
vn 0.0417 -0.9980 -0.0470
vn 0.8860 -0.4623 -0.0361
vn 0.8443 0.5358 0.0109
vn -0.0417 0.9980 0.0470
vn -0.0000 0.3834 0.9236
vn -0.0000 0.5471 0.8371
vn -0.0266 0.5449 -0.8381
# 127 vertex normals

vt 0.0000 0.0000 0.0000
vt 0.0670 0.7500 0.7500
vt 0.0670 0.2500 0.2500
vt 0.5000 0.0000 0.0000
vt 0.9330 0.7500 0.7500
vt 0.9330 0.2500 0.2500
vt 0.5000 1.0000 1.0000
vt 0.3333 0.7999 0.7999
vt 0.6667 0.7999 0.7999
vt 0.6667 0.8716 0.8716
vt 0.3333 0.8716 0.8716
vt 0.6667 0.9385 0.9385
vt 0.3333 0.9385 0.9385
vt 0.6667 1.0000 1.0000
vt 0.3333 1.0000 1.0000
vt 0.3333 0.3985 0.3985
vt 0.6667 0.3985 0.3985
vt 0.6667 0.4815 0.4815
vt 0.3333 0.4815 0.4815
vt 0.6667 0.5641 0.5641
vt 0.3333 0.5641 0.5641
vt 0.6667 0.6452 0.6452
vt 0.3333 0.6452 0.6452
vt 0.6667 0.7241 0.7241
vt 0.3333 0.7241 0.7241
vt 0.3333 0.0000 0.0000
vt 0.6667 0.0000 0.0000
vt 0.6667 0.0761 0.0761
vt 0.3333 0.0761 0.0761
vt 0.6667 0.1542 0.1542
vt 0.3333 0.1542 0.1542
vt 0.6667 0.2342 0.2342
vt 0.3333 0.2342 0.2342
vt 0.6667 0.3159 0.3159
vt 0.3333 0.3159 0.3159
vt 0.0000 0.7999 0.7999
vt 0.0000 0.8716 0.8716
vt 0.0000 0.9385 0.9385
vt 0.0000 1.0000 1.0000
vt 0.0000 0.3985 0.3985
vt 0.0000 0.4815 0.4815
vt 0.0000 0.5641 0.5641
vt 0.0000 0.6452 0.6452
vt 0.0000 0.7241 0.7241
vt 0.0000 0.0761 0.0761
vt 0.0000 0.1542 0.1542
vt 0.0000 0.2342 0.2342
vt 0.0000 0.3159 0.3159
vt 1.0000 0.7999 0.7999
vt 1.0000 0.8716 0.8716
vt 1.0000 0.9385 0.9385
vt 1.0000 1.0000 1.0000
vt 1.0000 0.3985 0.3985
vt 1.0000 0.4815 0.4815
vt 1.0000 0.5641 0.5641
vt 1.0000 0.6452 0.6452
vt 1.0000 0.7241 0.7241
vt 1.0000 0.0000 0.0000
vt 1.0000 0.0761 0.0761
vt 1.0000 0.1542 0.1542
vt 1.0000 0.2342 0.2342
vt 1.0000 0.3159 0.3159
vt 0.6667 0.8050 0.8050
vt 1.0000 0.8050 0.8050
vt 1.0000 0.8764 0.8764
vt 0.6667 0.8764 0.8764
vt 1.0000 0.9417 0.9417
vt 0.6667 0.9417 0.9417
vt 0.6667 0.3959 0.3959
vt 1.0000 0.3959 0.3959
vt 1.0000 0.4809 0.4809
vt 0.6667 0.4809 0.4809
vt 1.0000 0.5655 0.5655
vt 0.6667 0.5655 0.5655
vt 1.0000 0.6484 0.6484
vt 0.6667 0.6484 0.6484
vt 1.0000 0.7286 0.7286
vt 0.6667 0.7286 0.7286
vt 1.0000 0.0723 0.0723
vt 0.6667 0.0723 0.0723
vt 1.0000 0.1488 0.1488
vt 0.6667 0.1488 0.1488
vt 1.0000 0.2288 0.2288
vt 0.6667 0.2288 0.2288
vt 1.0000 0.3115 0.3115
vt 0.6667 0.3115 0.3115
vt 0.0000 0.8050 0.8050
vt 0.3333 0.8050 0.8050
vt 0.3333 0.8764 0.8764
vt 0.0000 0.8764 0.8764
vt 0.3333 0.9417 0.9417
vt 0.0000 0.9417 0.9417
vt 0.0000 0.3959 0.3959
vt 0.3333 0.3959 0.3959
vt 0.3333 0.4809 0.4809
vt 0.0000 0.4809 0.4809
vt 0.3333 0.5655 0.5655
vt 0.0000 0.5655 0.5655
vt 0.3333 0.6484 0.6484
vt 0.0000 0.6484 0.6484
vt 0.3333 0.7286 0.7286
vt 0.0000 0.7286 0.7286
vt 0.3333 0.0723 0.0723
vt 0.0000 0.0723 0.0723
vt 0.3333 0.1488 0.1488
vt 0.0000 0.1488 0.1488
vt 0.3333 0.2288 0.2288
vt 0.0000 0.2288 0.2288
vt 0.3333 0.3115 0.3115
vt 0.0000 0.3115 0.3115
vt 0.9167 0.0000 0.0000
vt 1.0833 0.0000 0.0000
vt 1.0833 1.0000 1.0000
vt 0.9167 1.0000 1.0000
vt 0.7500 0.0000 0.0000
vt 0.7500 1.0000 1.0000
vt 0.5833 0.0000 0.0000
vt 0.5833 1.0000 1.0000
vt 0.4167 0.0000 0.0000
vt 0.4167 1.0000 1.0000
vt 0.2500 0.0000 0.0000
vt 0.2500 1.0000 1.0000
vt 0.0833 0.0000 0.0000
vt 0.0833 1.0000 1.0000
# 124 texture coords

g Power_Lines_02
usemtl Power_Lines
s 1
f 1/1/1 2/1/1 3/1/1 
s 2
f 4/2/2 5/3/2 6/4/2 
s 3
f 4/2/2 6/4/2 7/5/2 
s 4
f 6/4/2 8/6/2 7/5/2 
s 5
f 9/7/2 4/2/2 7/5/2 
s 6
f 10/6/3 11/4/3 12/3/3 
s 7
f 10/6/3 12/3/3 13/7/3 
s 8
f 12/3/3 14/2/3 13/7/3 
s 9
f 15/5/3 10/6/3 13/7/3 
s 10
f 16/8/4 17/9/4 18/10/5 
s 11
f 18/10/5 19/11/5 16/8/4 
s 12
f 19/11/5 18/10/5 20/12/6 
s 13
f 20/12/6 21/13/6 19/11/5 
s 14
f 21/13/6 20/12/6 22/14/7 
s 15
f 22/14/7 23/15/7 21/13/6 
s 16
f 24/16/8 25/17/9 26/18/10 
s 17
f 26/18/10 27/19/10 24/16/8 
s 18
f 27/19/10 26/18/10 28/20/11 
s 19
f 28/20/11 29/21/11 27/19/10 
s 20
f 29/21/11 28/20/11 30/22/12 
s 21
f 30/22/12 31/23/12 29/21/11 
s 22
f 31/23/12 30/22/12 32/24/13 
s 23
f 32/24/13 33/25/13 31/23/12 
s 24
f 33/25/13 32/24/13 17/9/4 
s 25
f 17/9/4 16/8/4 33/25/13 
s 26
f 34/26/14 35/27/14 36/28/15 
s 27
f 36/28/15 37/29/15 34/26/14 
s 28
f 37/29/15 36/28/15 38/30/16 
s 29
f 38/30/16 39/31/16 37/29/15 
s 30
f 39/31/16 38/30/16 40/32/17 
s 31
f 40/32/17 41/33/18 39/31/16 
s 32
f 41/33/19 40/32/19 42/34/20 
s 33
f 42/34/20 43/35/20 41/33/18 
s 34
f 43/35/20 42/34/20 25/17/21 
s 35
f 25/17/21 24/16/8 43/35/20 
s 36
f 44/36/22 16/8/22 19/11/23 
s 37
f 19/11/23 45/37/23 44/36/22 
s 38
f 45/37/23 19/11/23 21/13/24 
s 39
f 21/13/24 46/38/25 45/37/23 
s 40
f 46/38/25 21/13/24 23/15/26 
s 41
f 23/15/26 47/39/27 46/38/25 
s 42
f 48/40/28 24/16/28 27/19/29 
s 43
f 27/19/29 49/41/29 48/40/28 
s 44
f 49/41/29 27/19/29 29/21/30 
s 45
f 29/21/30 50/42/30 49/41/29 
s 46
f 50/42/30 29/21/30 31/23/31 
s 47
f 31/23/31 51/43/31 50/42/30 
s 48
f 51/43/31 31/23/31 33/25/32 
s 49
f 33/25/32 52/44/33 51/43/31 
s 50
f 52/44/33 33/25/32 16/8/22 
s 51
f 16/8/22 44/36/22 52/44/33 
s 52
f 53/1/34 34/26/34 37/29/35 
s 53
f 37/29/35 54/45/36 53/1/34 
s 54
f 54/45/36 37/29/35 39/31/37 
s 55
f 39/31/37 55/46/38 54/45/36 
s 56
f 55/46/38 39/31/37 41/33/39 
s 57
f 41/33/39 56/47/40 55/46/38 
s 58
f 56/47/40 41/33/39 43/35/41 
s 59
f 43/35/41 57/48/41 56/47/40 
s 60
f 57/48/41 43/35/41 24/16/28 
s 61
f 24/16/28 48/40/28 57/48/41 
s 62
f 17/9/42 44/49/42 45/50/43 
s 63
f 45/50/43 18/10/44 17/9/42 
s 64
f 18/10/45 45/50/45 46/51/46 
s 65
f 46/51/46 20/12/47 18/10/44 
s 66
f 20/12/47 46/51/46 47/52/48 
s 67
f 47/52/48 22/14/48 20/12/47 
s 68
f 25/17/49 48/53/49 49/54/50 
s 69
f 49/54/50 26/18/51 25/17/49 
s 70
f 26/18/51 49/54/50 50/55/52 
s 71
f 50/55/52 28/20/52 26/18/51 
s 72
f 28/20/52 50/55/52 51/56/53 
s 73
f 51/56/53 30/22/53 28/20/52 
s 74
f 30/22/53 51/56/53 52/57/54 
s 75
f 52/57/54 32/24/54 30/22/53 
s 76
f 32/24/54 52/57/54 44/49/42 
s 77
f 44/49/42 17/9/42 32/24/54 
s 78
f 35/27/55 53/58/55 54/59/56 
s 79
f 54/59/56 36/28/57 35/27/55 
s 80
f 36/28/57 54/59/56 55/60/58 
s 81
f 55/60/58 38/30/59 36/28/57 
s 82
f 38/30/59 55/60/58 56/61/60 
s 83
f 56/61/60 40/32/61 38/30/59 
s 84
f 40/32/61 56/61/60 57/62/62 
s 85
f 57/62/62 42/34/62 40/32/61 
s 86
f 42/34/62 57/62/62 48/53/49 
s 87
f 48/53/49 25/17/49 42/34/62 
s 88
f 58/63/63 59/64/64 60/65/65 
s 89
f 60/65/65 61/66/65 58/63/63 
s 90
f 61/66/65 60/65/65 62/67/66 
s 91
f 62/67/66 63/68/67 61/66/65 
s 92
f 63/68/67 62/67/66 64/52/68 
s 93
f 64/52/68 65/14/69 63/68/67 
s 94
f 66/69/70 67/70/70 68/71/71 
s 95
f 68/71/71 69/72/71 66/69/70 
s 96
f 69/72/71 68/71/71 70/73/72 
s 97
f 70/73/72 71/74/72 69/72/71 
s 98
f 71/74/72 70/73/72 72/75/73 
s 99
f 72/75/73 73/76/73 71/74/72 
s 100
f 73/76/73 72/75/73 74/77/74 
s 101
f 74/77/74 75/78/74 73/76/73 
s 102
f 75/78/74 74/77/74 59/64/64 
s 103
f 59/64/64 58/63/63 75/78/74 
s 104
f 2/27/75 1/58/75 76/79/76 
s 105
f 76/79/76 77/80/77 2/27/75 
s 106
f 77/80/77 76/79/76 78/81/78 
s 107
f 78/81/78 79/82/79 77/80/77 
s 108
f 79/82/79 78/81/78 80/83/80 
s 109
f 80/83/80 81/84/80 79/82/79 
s 110
f 81/84/80 80/83/80 82/85/81 
s 111
f 82/85/81 83/86/82 81/84/80 
s 112
f 83/86/82 82/85/81 67/70/70 
s 113
f 67/70/70 66/69/70 83/86/82 
s 114
f 59/87/83 84/88/84 85/89/85 
s 115
f 85/89/85 60/90/85 59/87/83 
s 116
f 60/90/85 85/89/85 86/91/86 
s 117
f 86/91/86 62/92/86 60/90/85 
s 118
f 62/92/86 86/91/86 87/15/87 
s 119
f 87/15/87 64/39/87 62/92/86 
s 120
f 67/93/88 88/94/88 89/95/89 
s 121
f 89/95/89 68/96/89 67/93/88 
s 122
f 68/96/89 89/95/89 90/97/90 
s 123
f 90/97/90 70/98/90 68/96/89 
s 124
f 70/98/90 90/97/90 91/99/91 
s 125
f 91/99/91 72/100/91 70/98/90 
s 126
f 72/100/91 91/99/91 92/101/92 
s 127
f 92/101/92 74/102/93 72/100/91 
s 128
f 74/102/94 92/101/94 84/88/94 
s 129
f 84/88/94 59/87/83 74/102/93 
s 130
f 1/1/95 3/26/96 93/103/97 
s 131
f 93/103/97 76/104/97 1/1/95 
s 132
f 76/104/97 93/103/97 94/105/98 
s 133
f 94/105/98 78/106/98 76/104/97 
s 134
f 78/106/98 94/105/98 95/107/99 
s 135
f 95/107/99 80/108/100 78/106/98 
s 136
f 80/108/100 95/107/99 96/109/101 
s 137
f 96/109/101 82/110/101 80/108/100 
s 138
f 82/110/101 96/109/101 88/94/88 
s 139
f 88/94/88 67/93/88 82/110/101 
s 140
f 81/84/102 95/107/102 94/105/103 
s 141
f 94/105/103 79/82/104 81/84/102 
s 142
f 79/82/104 94/105/103 93/103/105 
s 143
f 93/103/105 77/80/105 79/82/104 
s 144
f 77/80/105 93/103/105 3/26/106 
s 145
f 3/26/106 2/27/106 77/80/105 
s 146
f 73/76/107 91/99/107 90/97/108 
s 147
f 90/97/108 71/74/108 73/76/107 
s 148
f 71/74/108 90/97/108 89/95/109 
s 149
f 89/95/109 69/72/109 71/74/108 
s 150
f 69/72/109 89/95/109 88/94/110 
s 151
f 88/94/110 66/69/110 69/72/109 
s 152
f 66/69/110 88/94/110 96/109/111 
s 153
f 96/109/111 83/86/111 66/69/110 
s 154
f 83/86/111 96/109/111 95/107/102 
s 155
f 95/107/102 81/84/102 83/86/111 
s 156
f 65/14/112 87/15/112 86/91/113 
s 157
f 86/91/113 63/68/113 65/14/112 
s 158
f 63/68/113 86/91/113 85/89/114 
s 159
f 85/89/114 61/66/115 63/68/113 
s 160
f 61/66/115 85/89/114 84/88/116 
s 161
f 84/88/116 58/63/117 61/66/115 
s 162
f 58/63/117 84/88/116 92/101/118 
s 163
f 92/101/118 75/78/118 58/63/117 
s 164
f 75/78/118 92/101/118 91/99/107 
s 165
f 91/99/107 73/76/107 75/78/118 
s 166
f 14/111/119 12/112/120 5/113/120 
s 167
f 5/113/120 4/114/119 14/111/119 
s 168
f 13/115/121 14/111/119 4/114/119 
s 169
f 4/114/119 9/116/121 13/115/121 
s 170
f 15/117/122 13/115/121 9/116/121 
s 171
f 9/116/121 7/118/122 15/117/122 
s 172
f 10/119/123 15/117/122 7/118/122 
s 173
f 7/118/122 8/120/123 10/119/123 
s 174
f 11/121/124 10/119/123 8/120/123 
s 175
f 8/120/123 6/122/124 11/121/124 
s 176
f 12/123/120 11/121/124 6/122/124 
s 177
f 6/122/124 5/124/120 12/123/120 
s 178
f 64/1/125 87/1/125 65/1/125 
s 179
f 47/1/126 23/1/126 22/1/126 
s 180
f 53/1/127 35/1/127 34/1/127 
# 180 faces

